<!DOCTYPE svg PUBLIC "-//W3C//DTD SVG 1.1//EN" "http://www.w3.org/Graphics/SVG/1.1/DTD/svg11.dtd">
<!-- Uploaded to: SVG Repo, www.svgrepo.com, Transformed by: SVG Repo Mixer Tools -->
<svg height="800px" width="800px" version="1.1" id="Capa_1" xmlns="http://www.w3.org/2000/svg" xmlns:xlink="http://www.w3.org/1999/xlink" viewBox="0 0 525.325 525.325" xml:space="preserve" fill="#ffffff" stroke="#ffffff">
<g id="SVGRepo_bgCarrier" stroke-width="0"/>
<g id="SVGRepo_tracerCarrier" stroke-linecap="round" stroke-linejoin="round"/>
<g id="SVGRepo_iconCarrier"> <g> <path style="fill:#ffffff;" d="M494.23,89.943L265.622,0.528c-0.382-0.154-0.772-0.114-1.162-0.203 C263.858,0.179,263.272,0,262.646,0c-0.65,0-1.244,0.179-1.861,0.333c-0.366,0.089-0.732,0.057-1.089,0.195l-0.309,0.122l0,0 L31.08,89.943c-3.804,1.496-5.706,5.527-4.804,9.397c-0.219,0.732-0.358,1.496-0.358,2.284v293.645c0,2.999,1.658,5.763,4.3,7.178 l228.616,121.929c0.374,0.195,0.772,0.309,1.162,0.447c0.203,0.073,0.398,0.171,0.61,0.228c0.675,0.171,1.366,0.276,2.057,0.276 s1.382-0.106,2.057-0.276c0.211-0.057,0.406-0.163,0.61-0.228c0.39-0.138,0.788-0.244,1.162-0.447l228.616-121.929 c2.65-1.414,4.3-4.178,4.3-7.178V101.623c0-0.788-0.146-1.544-0.358-2.284C499.944,95.478,498.042,91.438,494.23,89.943z M262.655,198.345L49.946,100.022l212.717-83.188l212.709,83.188L262.655,198.345z M42.167,114.345l212.359,98.153v291.149 L42.167,390.399V114.345z M483.142,390.399L270.783,503.647V212.497l212.359-98.153V390.399z"/> </g> </g>
</svg>